<svg id="Layer_1" data-name="Layer 1" xmlns="http://www.w3.org/2000/svg" xmlns:xlink="http://www.w3.org/1999/xlink" viewBox="0 0 256 256">
  <defs>
    <linearGradient id="linear-gradient" x1="262.85701" y1="165.70248" x2="348.52976" y2="35.55153" gradientTransform="matrix(1.024, 0, 0, -1.024, -178, 250.14401)" gradientUnits="userSpaceOnUse">
      <stop offset="0" stop-color="#36a0ad"/>
      <stop offset="1" stop-color="#13566b"/>
    </linearGradient>
    <linearGradient id="linear-gradient-2" x1="213.24156" y1="131.98035" x2="298.91431" y2="1.82938" xlink:href="#linear-gradient"/>
    <linearGradient id="linear-gradient-3" x1="262.63171" y1="181.22583" x2="313.87374" y2="21.21279" gradientTransform="matrix(1.024, 0, 0, -1.024, -178, 250.14401)" gradientUnits="userSpaceOnUse">
      <stop offset="0" stop-color="#59c8db"/>
      <stop offset="0.996" stop-color="#28919f"/>
    </linearGradient>
    <linearGradient id="linear-gradient-4" x1="190.05122" y1="154.86794" x2="237.07092" y2="53.9813" xlink:href="#linear-gradient"/>
    <linearGradient id="linear-gradient-5" x1="290.63272" y1="193.50365" x2="313.67908" y2="21.42456" gradientTransform="matrix(1.024, 0, 0, -1.024, -178, 250.14401)" gradientUnits="userSpaceOnUse">
      <stop offset="0" stop-color="#caffff"/>
      <stop offset="0.996" stop-color="#2390a8"/>
    </linearGradient>
    <linearGradient id="linear-gradient-6" x1="301.32356" y1="164.58659" x2="311.52006" y2="134.3892" gradientTransform="matrix(1.024, 0, 0, -1.024, -178, 250.14401)" gradientUnits="userSpaceOnUse">
      <stop offset="0" stop-color="#c2deff"/>
      <stop offset="1" stop-color="#89b3ff"/>
    </linearGradient>
    <linearGradient id="linear-gradient-7" x1="306.38536" y1="154.05674" x2="320.85185" y2="108.89797" gradientTransform="matrix(1.024, 0, 0, -1.024, -178, 250.14401)" gradientUnits="userSpaceOnUse">
      <stop offset="0" stop-color="#6c98e7"/>
      <stop offset="1" stop-color="#4e73c4"/>
    </linearGradient>
    <linearGradient id="linear-gradient-8" x1="294.63969" y1="117.89354" x2="307.50142" y2="23.03742" gradientTransform="matrix(1.024, 0, 0, -1.024, -178, 250.14401)" gradientUnits="userSpaceOnUse">
      <stop offset="0" stop-color="#ffd3d1"/>
      <stop offset="1" stop-color="#f59f9b"/>
    </linearGradient>
    <linearGradient id="linear-gradient-9" x1="359.3907" y1="143.84527" x2="359.3907" y2="-54.11004" gradientTransform="matrix(1.024, 0, 0, -1.024, -178, 250.14401)" gradientUnits="userSpaceOnUse">
      <stop offset="0" stop-color="#4f4a6b"/>
      <stop offset="1" stop-color="#322d47"/>
    </linearGradient>
    <linearGradient id="linear-gradient-10" x1="366.73314" y1="46.01054" x2="413.38307" y2="64.82717" xlink:href="#linear-gradient-8"/>
    <linearGradient id="linear-gradient-11" x1="359.3577" y1="200.15179" x2="359.3577" y2="159.0721" gradientTransform="matrix(1.024, 0, 0, -1.024, -178, 250.14401)" gradientUnits="userSpaceOnUse">
      <stop offset="0" stop-color="#ffd48c"/>
      <stop offset="1" stop-color="#ff7a75"/>
    </linearGradient>
    <linearGradient id="linear-gradient-12" x1="247.2169" y1="62.07702" x2="322.65364" y2="62.07702" gradientTransform="matrix(1.024, 0, 0, -1.024, -178, 250.14401)" gradientUnits="userSpaceOnUse">
      <stop offset="0" stop-color="#fff"/>
      <stop offset="1" stop-color="#ced9ff"/>
    </linearGradient>
    <linearGradient id="linear-gradient-13" x1="292.21759" y1="79.25567" x2="292.21759" y2="7.0056" gradientTransform="matrix(1.024, 0, 0, -1.024, -178, 250.14401)" gradientUnits="userSpaceOnUse">
      <stop offset="0" stop-color="#6170a0"/>
      <stop offset="1" stop-color="#8d9bce"/>
    </linearGradient>
    <linearGradient id="linear-gradient-14" x1="290.40372" y1="143.72016" x2="290.40372" y2="109.19433" xlink:href="#linear-gradient-8"/>
    <linearGradient id="linear-gradient-15" x1="296.79448" y1="112.21222" x2="311.79891" y2="68.38327" xlink:href="#linear-gradient-6"/>
    <linearGradient id="linear-gradient-16" x1="292.26115" y1="78.88835" x2="292.26115" y2="5.23292" xlink:href="#linear-gradient-13"/>
    <linearGradient id="linear-gradient-17" x1="220.46101" y1="167.36062" x2="271.75375" y2="7.18871" xlink:href="#linear-gradient-3"/>
    <linearGradient id="linear-gradient-18" x1="324.20289" y1="78.88835" x2="324.20289" y2="5.23292" xlink:href="#linear-gradient-13"/>
    <linearGradient id="linear-gradient-19" x1="294.6165" y1="114.14539" x2="318.96821" y2="57.83182" xlink:href="#linear-gradient-7"/>
  </defs>
  <g>
    <rect width="256" height="256" rx="20" fill="#29abe2"/>
    <g>
      <g>
        <path d="M199.05694,139.15142c-2.82867,94.27315-135.70562,94.25086-138.52094,0C63.36467,44.87828,196.24207,44.90057,199.05694,139.15142Z" fill="url(#linear-gradient)"/>
        <path d="M78.2096,143.2505c-.78628,26.20432-37.72078,26.19815-38.50291,0C40.493,117.04665,77.427,117.05282,78.2096,143.2505Z" fill="url(#linear-gradient-2)"/>
        <path d="M126.31832,56.049c-18.9509,0-55.66568,13.81649-55.66568,13.81649-41.08746,27.9631-54.29349,46.7334-53.15575,66.91622.60387,10.7244,8.457,19.45142,18.88963,19.45142,12.89189.26562,22.35766-13.83831,17.73993-26.14931,24.16283-33.19866,40.53794-51.31771,72.1914-52.91475,85.65309,6.16617,82.3076,128.0263-1.38186,132.50435l23.49171,17.677s60.46581-13.89759,60.46581-83.9192C208.893,95.17144,171.92309,56.049,126.31831,56.049Z" fill="url(#linear-gradient-3)"/>
        <path d="M37.97244,147.749a10.4701,10.4701,0,0,1-6.17233-2.10076c-12.79238-8.97368,1.99035-28.97673,4.5468-31.631,1.47768-1.69617,4.00741.59148,2.54309,2.31943-.09765.11336-9.75689,11.47856-8.79787,20.20132.26716,5.21373,6.80476,9.70982,10.82922,6.84018a3.76078,3.76078,0,0,0,1.51222-4.19489c-.35837-1.54723-2.11886-2.97826-3.35287-2.73351a1.7022,1.7022,0,0,1-1.98735-1.39,1.74717,1.74717,0,0,1,1.34985-2.04645c3.31648-.65409,6.58459,2.29049,7.29487,5.35982,1.35791,5.08235-2.93923,9.53195-7.76562,9.37591Z" fill="url(#linear-gradient-4)"/>
        <path d="M125.59053,35.05035c-40.80648,0-96.34779,29.26938-96.34779,73.56145.00025,12.90588,10.16031,23.3681,22.69345,23.36836,21.72107.80635,32.35315-28.73292,10.88449-38.271,65.30788-77.947,172.89023-.54689,132.96907,89.79649l-38.55958-1.727s-33.21819,45.89717-33.36836,45.89386L153.31443,249.837S229.13,232.41189,229.13,144.61417c-.0023-60.511-46.35743-109.56382-103.53948-109.56382Z" fill="url(#linear-gradient-5)"/>
        <path d="M108.74928,115.21719c-5.32525-7.70866-8.26125-15.45384-6.4358-23.2716a9.6902,9.6902,0,0,1,2.37957-2.30757,11.293,11.293,0,0,0,3.74024-4.39079,15.97976,15.97976,0,0,1,6.48694-6.99149l5.66335-1.87024c4.41137-.70579,10.428.37945,13.53076,2.419l2.97929,2.32417c1.93092,2.21224,4.31833,4.76455,5.966,5.68853.85446,1.65728,2.19809,2.36306,4.36577,1.46565,11.902-1.83515,25.02743-1.26976,24.51015,17.3037a23.88327,23.88327,0,0,0,.31,4.61372Z" fill="url(#linear-gradient-6)"/>
        <path d="M178.43261,120.35362c-4.94616-3.0608-6.18708-10.15332-6.18708-10.15332-11.37229-11.43113-16.22632-8.59089-24.96063-7.03228-3.55094.63322-8.67166.57914-10.74354-2.918-5.59564-9.44372-18.02137-11.20725-26.957-4.00848a4.35835,4.35835,0,0,1-6.26058-.59825,4.67788,4.67788,0,0,1-.94815-3.77262c-.32243,1.70756-1.8609,3.24294-2.23586,5.7426-3.16309,14.3814,8.92271,19.93523,8.92317,19.93523,20.4014,15.92153,49.57579,25.79784,82.45129,33.12229C192.49723,134.53106,185.14432,124.50724,178.43261,120.35362Z" fill="url(#linear-gradient-7)"/>
        <path d="M187.77586,146.33548c-23.57646-34.60786-67.19182-19.07718-81.6337-16.34035,0,0-34.4476,5.29058-60.38475,46.54652a13.32354,13.32354,0,0,1-3.36254,3.65511c-3.59284,2.64245-10.4165,9.33415-2.25244,17.79888,0,0-1.42792,11.82671,21.08128,20.47738,4.19166,1.61269,9.53856,5.20709,11.64913,9.19138,0,0-5.855-.98564-8.20736,5.43288-2.34457,6.39906,4.22114,14.2467,12.19358,11.47,9.8725-3.43882,8.91072-13.281,8.91072-13.281l66.69251-6.43037,2.90745-17.2425c9.56619-10.79838,15.93751-19.80621,17.0688-22.31632,10.27186,14.24622,32.396,14.71675,32.396,14.71675l20.76114-24.99671c-7.31743-16.70795-18.88181-23.68237-27.29782-26.59375Z" fill="url(#linear-gradient-8)"/>
        <g>
          <path d="M191.14066,146.71668v45.0434h7.19722V148.47167A42.29526,42.29526,0,0,0,191.14066,146.71668Z" fill="#e07a86"/>
          <path d="M82.00743,213.92428l8.98212,5.36789L99.53777,208.221l2.09076-18.11668-11.3534-23.14922-6.9646-17.021a50.63078,50.63078,0,0,0-13.36264,33.01273,1.64661,1.64661,0,0,1-1.6618,1.63375,1.58554,1.58554,0,0,1-.62565-.14533,21.8569,21.8569,0,0,0-9.3672-1.68337.94617.94617,0,0,0-.44727,1.7972c3.0074,1.5145,7.13964,4.54494,12.17608,9.49211,3.538,3.47582,7.40726,13.705,7.40726,13.705Z" fill="#e07a86"/>
          <path d="M204.83452,200.0108l15.008-18.07162-.099-5.12741c-17.81777-.50609-27.28124,9.85307-27.28124,9.85307h-3.88765c2.33259-22.84946-16.25994-29.932-16.25994-29.932l-60.01671,27.94366L107.18917,199.665l5.03137,29.06827,42.222-4.0711,2.85309-15.91441c9.5662-10.79792,13.15214-17.56316,14.28573-20.07372,10.27048,14.24622,33.2532,11.33674,33.2532,11.33674Z" fill="#e07a86"/>
        </g>
        <path d="M186.6424,90.78165h6.74739V253.36619H186.6424Z" fill="url(#linear-gradient-9)"/>
        <path d="M225.65529,175.16373s19.31433,7.90171,8.56065,20.50727c-.14832,2.733-6.627,22.3922-39.6402,16.93325h-8.20136a6.12067,6.12067,0,0,1-6.02954-6.20791v-3.76182l-1.1884-.76509c-2.9991-1.84985-1.81117-6.825,1.6914-7.01521l13.49622-1.00176a8.38035,8.38035,0,0,0,5.47864-2.642c4.12993-4.38936,13.90018-13.50439,25.83259-16.04674Z" fill="url(#linear-gradient-10)"/>
        <path d="M214.5389,35.36482a96.7696,96.7696,0,0,0-5.91807,8.81952,5.97689,5.97689,0,0,0-.562,4.71523c1.21051,4.03694,3.36945,12.76681,2.47952,21.31976-.89177,8.57193.737,16.52344-12.621,16.50637a5.084,5.084,0,0,1-4.9774-5.02258V60.51141a6.13418,6.13418,0,0,1,1.25143-3.61859,7.70257,7.70257,0,0,0,1.56611-6.17992,67.86756,67.86756,0,0,0-4.9374-15.39408.91512.91512,0,0,0-1.23105-.46124.94053.94053,0,0,0-.44791.46124,67.89983,67.89983,0,0,0-4.9374,15.39408,7.7055,7.7055,0,0,0,1.56611,6.17992,4.13276,4.13276,0,0,1,.87254,3.61859V81.70216a4.54779,4.54779,0,0,1-4.59713,5.02259c-13.358.018-11.73019-7.93349-12.621-16.50636-.88993-8.553,1.269-17.28283,2.48-21.31977a5.9783,5.9783,0,0,0-.56243-4.71523,96.77157,96.77157,0,0,0-5.91806-8.81952.91042.91042,0,0,0-1.30156-.175.96282.96282,0,0,0-.35668.65218c-1.31138,12.87164-.351,35.57928.74805,44.7109a13.58656,13.58656,0,0,0,13.19911,12.08252h24.53962A13.587,13.587,0,0,0,215.4514,80.55194c1.099-9.13163,2.059-31.83926.74758-44.7109a.93505.93505,0,0,0-1.02375-.84594A.92223.92223,0,0,0,214.5389,35.36482Z" fill="url(#linear-gradient-11)"/>
        <path d="M108.59037,124.21743S51.30652,148.70756,86.6878,238.708c-.62092,5.67383,36.69682,17.13342,62.62015,4.56344l3.08939-24.31558c-14.2567-6.83638-42.0391-24.53377-46.54491-60.05518Z" fill="url(#linear-gradient-12)"/>
        <path d="M120.44585,244.13521c-41.06765-40.85136-24.26417-94.49229-24.26417-94.49229l3.73979,8.21524S96.97671,229.354,149.68336,240.316C142.10428,243.17234,131.84025,244.0669,120.44585,244.13521Z" fill="url(#linear-gradient-13)"/>
        <path d="M106.99846,107.66749a94.70638,94.70638,0,0,0-2.15617,24.3393H133.967s0-11.42354-1.21144-22.443c-1.73563-14.88086-22.06839-16.4096-25.757-1.89633Z" fill="url(#linear-gradient-14)"/>
        <path d="M119.63838,124.5689c-7.9729.803-19.69066,8.40734-22.66259,21.69733,15.74682,36.49946,35.24034,52.15442,59.28893,42.47353,11.7127-17.07555,15.82973-31.41189,2.87842-39.59155-.97928-.39322-10.60949-4.16549-15.5271-14.04559-6.59933-14.083-23.97767-10.53372-23.97767-10.53372Z" fill="url(#linear-gradient-15)"/>
        <path d="M86.16776,237.37139s34.4324,14.87138,70.09789.63084l.88394,5.403a5.74559,5.74559,0,0,1-3.83744,6.43179c-10.67077,3.40089-38.16343,9.80847-64.81731-3.47676a5.81578,5.81578,0,0,1-2.95075-6.79133Z" fill="url(#linear-gradient-16)"/>
        <path d="M53.77776,117.29282c-6.4312-.33486-12.32762-5.5173-10.9628-15.19628,2.451-14.27706,18.31432-14.55216,22.99056-11.47856l-2.98483,3.08925c-14.46214-5.53295-22.67549,14.934-11.33683,19.663,2.38741.86231,4.72552.35668,5.56017-1.20193a1.67353,1.67353,0,0,1,2.30794-.68706,1.77672,1.77672,0,0,1,.66722,2.37659,6.83147,6.83147,0,0,1-6.24143,3.435Z" fill="url(#linear-gradient-17)"/>
        <path d="M160.82073,222.4431a71.49781,71.49781,0,0,1-8.42294-3.48816,12.19294,12.19294,0,0,1-1.78537,7.02279,9.04331,9.04331,0,0,0-1.63245,5.1127c0,3.28514-.40672,8.35705-2.57948,11.92062l9.86559-5.00882.76417-6.8843s6.7389-3.25337,3.79046-8.67485Z" fill="url(#linear-gradient-18)"/>
        <path d="M162.34493,163.661a17.7302,17.7302,0,0,0-3.20316-14.5052c19.12778,7.26,26.41573,21.43077,18.73809,38.00116-5.404,11.6626-16.29634,11.5924-23.04906,10.20927a44.83727,44.83727,0,0,0-13.14107-.63275c-19.704,1.82045-28.36463-7.94772-31.90036-14.43405a30.94025,30.94025,0,0,0-7.72693-9.2578c-5.96275-4.8191-9.13874-11.16693-5.08573-26.7754,1.95626-7.748,6.39021-13.69886,11.07289-16.89721-2.99911,5.47888-6.59564,15.47566.55736,24.02957a24.77887,24.77887,0,0,0,3.83283,3.52278,30.65405,30.65405,0,0,1,11.29675,18.08158,15.8137,15.8137,0,0,0,8.09773,8.50647S156.098,192.679,162.34493,163.661Z" fill="url(#linear-gradient-19)"/>
        <path d="M36.38606,158.72568a19.95755,19.95755,0,0,0,6.38146-1.0473,20.80251,20.80251,0,0,0,10.27187,7.01331,130.8267,130.8267,0,0,0-7.63573,10.8999,11.53868,11.53868,0,0,1-2.924,3.18222c-6.27229,4.42826-10.01024,12.39922-2.97654,19.91246.09581,3.14285,2.00232,13.66328,22.1992,21.42553a25.52585,25.52585,0,0,1,9.04615,6.03289,9.51769,9.51769,0,0,0-6.59979,6.336c-2.57948,6.73537,3.47862,14.65651,10.46257,14.41414a14.61439,14.61439,0,0,0,9.25112-3.80879,7.46857,7.46857,0,0,0,3.89226,4.84851c30.5429,14.66268,66.34473,9.078,97.53831-10.93973V252.903h2.699V213.99387h3.59861V252.903h3.59861V229.16187a107.57893,107.57893,0,0,0,13.33-14.11863c17.01214-.73,25.14718-8.1512,28.27987-18.71859,9.00746-10.67222-1.9839-19.71562-8.86974-22.65688-.03961-.08775-.08015-.1736-.11976-.26087,5.70019-25.48905,3.51776-54.675-7.966-78.35778a1.676,1.676,0,0,0-2.2819-.77376,1.77336,1.77336,0,0,0-.77478,2.30012c10.56942,21.81876,12.96144,48.19431,8.5473,71.95872a47.3224,47.3224,0,0,0-19.62986-19.30912c.75634-15.92152-2.322-32.02234-9.03187-44.21285a13.45276,13.45276,0,0,1-1.5896-6.36112c-.00277-.749,0-4.627,0-4.627h7.16958s13.94119-5.529,14.885-13.2558c1.15524-9.60025,2.211-34.91.47122-47.46053a1.70748,1.70748,0,0,0-1.923-1.48282,1.68752,1.68752,0,0,0-1.071.621,93.83558,93.83558,0,0,0-8.81123,13.33553,1.79925,1.79925,0,0,0-.082,1.43387c.0433.11573,4.28378,11.74133,3.13223,22.81767-.20913,1.995-.28144,3.97718-.44313,5.90577a109.79232,109.79232,0,0,0-13.691-15.25131,4.00133,4.00133,0,0,1,.77477-2.67137,9.46867,9.46867,0,0,0,1.93461-7.61949,70.01048,70.01048,0,0,0-5.948-17.65991,1.68513,1.68513,0,0,0-2.32067-.70193,1.73657,1.73657,0,0,0-.68167.70193,69.38877,69.38877,0,0,0-6.02585,18.19922c-2.68129-1.82424-5.45008-3.52231-8.264-5.07524a92.10616,92.10616,0,0,0-8.84395-13.41474,1.67639,1.67639,0,0,0-2.41047-.20539,1.77466,1.77466,0,0,0-.58357,1.06724c-1.74115,12.54768-.68448,37.85933.47076,47.46053a14.71045,14.71045,0,0,0,14.88546,13.2558h7.13641v21.58354a64.05979,64.05979,0,0,0-50.87383-38.87533c-6.2184-3.41511-16.97437-2.96783-21.82058,1.27118C100.495,81.0894,88.56486,88.22887,79.38881,97.52224c-1.56105,1.63546.76094,4.07916,2.38372,2.493a73.13386,73.13386,0,0,1,25.8768-16.90858c-1.01705,1.94945-2.08846,3.93686-3.89409,5.07523-3.848,2.25112-6.47773,8.94047-5.28149,16.18335-10.15625,6.00206-16.35668,16.503-16.61924,16.95412a1.77947,1.77947,0,0,0,.5813,2.401,1.67172,1.67172,0,0,0,2.33168-.5986c.058-.09913,5.63709-9.52436,14.4824-15.15835a18.95157,18.95157,0,0,0,5.56892,8.7849c-.28421,2.52575-.48227,5.17579-.58453,7.83767a58.44177,58.44177,0,0,0-10.00517,7.74851,81.636,81.636,0,0,0-14.67771,7.74,21.80582,21.80582,0,0,0-9.1848-14.16465c8.97245-9.7767,7.83333-26.05728-4.79876-32.79738,21.26967-24.91085,57.24378-38.439,89.60383-23.58512,2.05484.85045,3.36761-2.30425,1.30817-3.22965C122.14647,50.574,84.1659,65.3614,62.20392,91.76873c-20.593-4.65308-27.65666,24.27147-8.98213,26.02029a7.35373,7.35373,0,0,0,6.82319-3.97481,1.70928,1.70928,0,1,0-3.02582-1.59087c-1.135,2.28954-4.25983,2.45983-6.62328,1.45712-3.12071-1.32289-5.82042-4.78543-4.03827-10.53609,3.30957-10.67506,14.64777-8.09381,15.91586-7.76795,19.53037,8.847,9.60489,35.71635-10.33911,34.85973-11.5895-.01333-20.98148-9.68442-20.99468-21.61859,0-19.46992,11.40269-37.912,32.10533-51.92911,24.60964-16.24407,55.07471-23.89106,82.96719-17.71588a1.69888,1.69888,0,0,0,2.02689-1.32808,1.75056,1.75056,0,0,0-1.28972-2.08717l-.04117-.00887C101.92194,24.54705,31.73654,54.51226,27.66189,105.10758,11.752,122.23625,9.272,156.893,36.38606,158.72574ZM77.38739,242.91c-5.61958,2.24117-12.04572-3.3876-10.06-9.19517,1.78307-4.86558,5.896-4.39126,6.34369-4.32391a1.71888,1.71888,0,0,0,1.94441-1.48247,1.80728,1.80728,0,0,0-.17885-1.08171c-2.363-4.45861-8.16038-8.30726-12.54642-9.993-13.98632-5.37548-18.20239-11.92916-19.46311-15.6559,4.50718,1.46613,8.51275-3.56167,6.73613-8.07341a9.28517,9.28517,0,0,0-2.26948-3.4948c-1.65133-1.54723-3.92865.94295-2.32891,2.5471,1.40351,1.26407,2.3851,3.88517.737,5.27255-1.53249,1.31482-3.63477-.45534-3.91529-.70342-2.38-2.48022-3.48967-4.93293-3.29621-7.2922.29388-3.58112,3.48737-6.43227,5.36533-7.81348a14.97911,14.97911,0,0,0,3.80059-4.1266c12.90662-20.52908,27.89019-32.06123,39.93591-38.50109C76.667,153.61964,72.19664,172.64369,73.7061,192.9636c-5.91162-9.18522-13.06784-11.31112-13.38153-11.4003a1.69387,1.69387,0,0,0-2.08511,1.22878,1.7564,1.7564,0,0,0,1.17447,2.14174c.06771.01991,6.83562,2.09744,12.12817,11.03933a34.06526,34.06526,0,0,1,3.60943,8.80292,172.8857,172.8857,0,0,0,9.0093,32.10345A10.898,10.898,0,0,1,77.38739,242.91Zm11.84766,1.875a4.09477,4.09477,0,0,1-1.954-5.1018c18.29405,6.91751,45.89221,9.15772,67.65151.69915l.54216,3.3136a4.00618,4.00618,0,0,1-2.66517,4.47c-10.41373,3.32072-37.45546,9.63962-63.57455-3.381Zm5.3819-63.17288a106.49027,106.49027,0,0,1,.29158-14.94111,17.80253,17.80253,0,0,0,4.11841,5.97976c.84386,23.98214,13.768,56.03768,45.25148,67.31987a91.33665,91.33665,0,0,1-23.15776,2.3882C100.76993,221.80891,95.464,198.01652,94.617,181.61212ZM108.49871,114.723a22.76119,22.76119,0,0,0,2.6974.74754,1.76306,1.76306,0,0,0,.48135-3.427l-2.60666-.79449c.64487-5.35461,3.68083-10.2828,8.90751-11.50228a11.07574,11.07574,0,0,1,9.31745,1.7787,12.00412,12.00412,0,0,1,4.8439,8.41445c.544,4.94764.83833,9.98256.99725,13.84685-.51314-.16791-1.02489-.31495-1.53433-.44586a1.64018,1.64018,0,0,0-.74621-.17977c-7.37547-1.366-9.98535-.72381-12.93057-.07257-2.00279.443-3.603-.15178-3.72275-1.3281-.03593-1.40162,1.83834-2.32132,1.883-2.34266a1.76992,1.76992,0,0,0,.87334-2.30473,1.68015,1.68015,0,0,0-2.23816-.89931h0c-2.83006,1.12651-5.62788,5.42006-2.649,8.82616a29.534,29.534,0,0,0-3.06774,1.62123q-.70752.42688-1.44727.9382A102.54056,102.54056,0,0,1,108.49871,114.723Zm9.94436-32.88845c4.43257-4.96329,12.17885-4.25655,16.83066-.04174-8.52472.351-12.86931,7.01094-12.89741,14.195a14.21165,14.21165,0,0,0-5.07329.32776C116.10726,93.59956,113.88062,86.8661,118.44307,81.8345Zm47.24736,12.77156c5.67209,5.37311,3.69,11.16077,5.61959,18.12284-13.15812-7.81775-25.32867-6.95781-35.74057-2.67611a16.00262,16.00262,0,0,0-1.68679-5.96079c1.0212-3.68168,8.42937-15.0113,20.66626-14.05222C157.75852,90.29876,162.59782,91.58606,165.69043,94.60606Zm16.014,98.35278a5.20971,5.20971,0,0,0-1.59422.37945,23.631,23.631,0,0,1-2.67943-1.976c11.81818-18.94248,2.28054-37.16493-18.69386-44.21191-.737-.34057-9.81124-4.67918-13.62243-12.80667a19.3159,19.3159,0,0,0-7.18247-8.2878c13.21615-.60761,34.51254,1.3134,46.91111,17.50243V192.726Zm-25.39361,36.784a1.74688,1.74688,0,0,0-.96731,1.38548l-.64487,5.82135q-2.18242.83953-4.35748,1.53585c-28.547-6.68176-46.46015-37.29347-47.66284-62.39737a28.1773,28.1773,0,0,1,5.57353,7.17079,28.84149,28.84149,0,0,0,9.95127,10.70826c15.01949,20.17523,37.192,28.6817,41.40759,30.11937,1.23677,2.50251-1.97975,5.07807-3.3022,5.65627Zm.38876-21.30738-1.75036,9.771a92.64287,92.64287,0,0,1-29.58251-21.16467,42.78723,42.78723,0,0,0,16.47874,1.4353,43.26808,43.26808,0,0,1,12.65743.60619,31.92461,31.92461,0,0,0,9.18664.535c-1.94289,2.54616-4.14007,5.20851-6.57307,7.95483a1.76978,1.76978,0,0,0-.41963.86231Zm8.7684-12.70749a15.87767,15.87767,0,0,1-9.95773-.73567c-11.76566-4.645-15.72193-14.241-16.9693-21.47393a29.29577,29.29577,0,0,0-11.124-18.461c-14.21755-10.787-9.12631-21.82587-8.89507-22.30636a1.709,1.709,0,0,0-3.02951-1.58281c-3.24278,7.70344-1.37449,18.18261,9.90889,26.70426a25.79467,25.79467,0,0,1,9.7942,16.2564c1.13912,6.603,4.29484,14.96292,12.55609,20.66853a48.96885,48.96885,0,0,0-6.01388.17645c-10.06228-1.26169-16.01535-7.416-17.69109-18.29834A30.70593,30.70593,0,0,0,112.44209,156.92c-14.58052-10.62478-4.831-24.73725-1.45465-27.43993,5.97979-3.34017,10.86561-4.01749,17.41519-3.25716-2.76972,8.90585-.88578,17.57927,10.41926,27.59836A36.87365,36.87365,0,0,1,148.998,167.24832c2.04931,4.71379,6.32987,10.39995,15.08168,10.71965,6.93282.33866,12.5676-3.01384,14.2825-9.18095,3.07326,9.19993-2.54955,25.21631-12.89649,26.94095Zm-23.3807-59.865c4.63108,9.73448,14.87808,14.29555,15.49761,14.56781,6.98072,2.50773,12.42113,5.93708,16.09965,10.09118,4.77942,6.93789-1.05942,14.72481-9.486,13.95309-5.62327-.20681-9.6947-3.11867-12.10192-8.65494A40.33331,40.33331,0,0,0,140.979,151.12137c-13.02454-11.03981-10.5943-20.86157-9.23362-24.13865a16.33844,16.33844,0,0,1,10.34188,8.88023Zm-16.312-39.06364c-.17365-5.65674,2.55645-11.26274,9.81953-11.526,3.14191-.35764,5.14653,2.3422,7.609,3.64278a26.6784,26.6784,0,0,0-11.56161,11.90545A14.87911,14.87911,0,0,0,125.77525,96.79932Zm59.06785,41.4286c-13.96651-14.98854-35.47571-16.37307-48.38786-15.59851-.11884-2.63343-.298-5.71035-.56841-8.902,12.40546-6.2359,29.49039-3.74951,40.85946,7.49046a36.73579,36.73579,0,0,1,8.09681,8.79533ZM153.47889,86.50324c-6.57537.53646-8.6279.80255-13.94117-5.23223A60.43936,60.43936,0,0,1,153.8216,86.4985c-.11653-.00189-.228.0038-.34269.00474Zm-47.4468,69.17827a28.17363,28.17363,0,0,0,4.3713,4.04074c14.82419,11.21579,5.98348,24.87007,20.271,34.97357-11.44138-1.90392-16.979-8.7607-19.45482-13.346a32.14033,32.14033,0,0,0-8.135-9.70555c-5.57952-4.52123-8.27323-10.26762-4.468-24.926a31.69777,31.69777,0,0,1,3.07-7.70392c-1.15478,4.85468-.63981,10.70495,4.34551,16.66716Zm51.6814,90.69818c.78713-2.05665-.43168-6.30846-.69089-8.42536l.65848-5.73549c3.33146-1.81522,6.47139-6.21361,3.81174-10.63047a1.75713,1.75713,0,0,0-1.01821-.81773c-.04193-.01329-.78713-.24664-2.07121-.72429a92.50936,92.50936,0,0,0,16.856-9.69749,1.76851,1.76851,0,0,0-.3938-3.06961,1.602,1.602,0,0,0-1.61589.19816l-.07247.053a88.56022,88.56022,0,0,1-15.40374,8.96182l1.28647-6.93362a119.09377,119.09377,0,0,0,9.2268-11.25279,18.61977,18.61977,0,0,0,6.63387-4.26035,27.6115,27.6115,0,0,0,2.25655,1.68148,5.58786,5.58786,0,0,0,2.268,7.72621v2.79328a7.968,7.968,0,0,0,5.39791,7.51846v19.01362a113.0783,113.0783,0,0,1-27.12961,13.60114Zm37.47561-21.73214V214.32681c3.03687-.019,6.15529.70152,9.08162.76223a98.34558,98.34558,0,0,1-9.08254,9.55851Zm30.32651-48.96868a1.7869,1.7869,0,0,0,.93025.91481c3.46423,1.44406,16.44072,8.40759,8.06942,17.80519a3.21687,3.21687,0,0,1-2.18608.76633c-.91816.05173-2.86609-1.87272-2.52842-2.99587a5.66314,5.66314,0,0,1,2.29539-2.85026,1.808,1.808,0,0,0,.03577-3.00861,1.61409,1.61409,0,0,0-1.81366-.01289l-.03331.02131c-.33489.21409-3.28843,2.18069-3.85122,5.17272-.75258,3.65061,3.13539,7.56751,6.46057,7.20686-3.901,9.35641-16.9491,15.36347-34.20424,12.50076-2.03863-.307-9.10014-.194-11.27413-.205a4.44428,4.44428,0,0,1-4.37215-4.50219v-3.8c.0772-1.17105-1.21444-1.74819-2.00608-2.27025a2.09978,2.09978,0,0,1,.92188-3.824l17.01886-1.26349a1.70122,1.70122,0,0,0,1.19955-.63653,63.55674,63.55674,0,0,1,17.74958-14.49369c1.9791-1.069.48792-4.17315-1.55351-3.15009a66.14487,66.14487,0,0,0-18.35517,14.8098l-2.82981.20977v-43.4078c8.409,2.00778,22.07335,8.16813,30.3265,27.01313Zm-23.00723-31.06469c0,1.02786-.01888,2.05049-.04606,3.067a43.84869,43.84869,0,0,0-7.27322-2.28053V109.44709C200.04221,119.57716,202.50838,131.38727,202.50838,144.61418ZM207.53949,80.578c-1.09351,2.82743-3.63476,4.4164-9.60074,4.39743a3.24314,3.24314,0,0,1-3.19948-3.27281V65.45005A106.81618,106.81618,0,0,1,207.53949,80.578ZM173.56273,49.46971a101.50262,101.50262,0,0,1,9.54086,6.11874c.5827,1.81238,2.29528,2.78094,2.18933,4.9244V81.7036a3.24313,3.24313,0,0,1-3.19948,3.27281c-9.931.01613-10.19862-4.2741-10.65372-11.378A59.602,59.602,0,0,1,173.56273,49.46971ZM165.9081,80.358c-1.02064-8.41189-1.96776-29.11081-.93231-42.12419a79.82977,79.82977,0,0,1,5.55411,8.64062c-.97624,2.87233-4.16211,13.25723-3.079,23.58732.11978,1.14316.19469,2.29578.26637,3.41012.46246,7.17468.9411,14.59321,14.05869,14.59227a6.69668,6.69668,0,0,0,6.66578-6.7284l.00008-.0186V60.60565a7.34881,7.34881,0,0,0-1.56958-4.71917,5.84855,5.84855,0,0,1-1.2024-4.73428,63.95406,63.95406,0,0,1,4.12142-13.31158,63.98218,63.98218,0,0,1,4.12141,13.31158,5.847,5.847,0,0,1-1.20239,4.73428,7.35166,7.35166,0,0,0-1.56959,4.71917v21.1129a6.69809,6.69809,0,0,0,6.64859,6.74708l.01727-.00009c13.11343,0,13.59347-7.41947,14.05869-14.59227,1.6186-10.37875-1.28794-23.31653-2.81266-26.99744a79.82988,79.82988,0,0,1,5.55456-8.64061c1.03545,13.01527.08787,33.71135-.9323,42.12372a11.744,11.744,0,0,1-11.56143,10.42271H177.469a11.744,11.744,0,0,1-11.55911-10.42224Zm25.68239,14.12786v97.92353l-3.59861.25328V94.48728Zm-7.483,28.87829a51.61515,51.61515,0,0,0-5.4183-5.07523c-4.428-3.76184-4.83653-8.91723-5.32709-15.56958a64.22551,64.22551,0,0,1,10.74723,20.64623Zm-74.16011-37.329a14.15265,14.15265,0,0,1,5.68039-6.19938c-5.35381,6.32555-2.994,14.20923-1.52,17.67841a14.92247,14.92247,0,0,0-6.17233,6.05044c-3.7467-2.29856-4.60115-6.95923-2.98852-11.94387a14.24716,14.24716,0,0,0,5.00235-5.58418Zm-8.31652,15.06205a11.56121,11.56121,0,0,0,4.96458,5.71035,50.59077,50.59077,0,0,0-1.18472,5.60173,17.70958,17.70958,0,0,1-3.778-11.31065Zm2.53664,29.248c-4.1115,3.48484-8.40174,11.35287-9.62331,18.822-7.04982,22.45909-4.93648,65.71714,21.5981,92.9626A102.6842,102.6842,0,0,1,87.47964,236.021c-19.5967-49.76572-10.6634-89.34637,16.6745-107.28376q.0023.80871.01521,1.60937ZM76.41688,142.19372a109.48635,109.48635,0,0,0-20.96474,19.515,17.31015,17.31015,0,0,1-9.404-5.46939,20.96611,20.96611,0,0,0,7.4197-6.8914c13.98263,5.5837,16.0932-14.02614,10.4925-12.32333a1.77075,1.77075,0,0,0-.87518,2.30377,5.0787,5.0787,0,0,1-.38692,4.52692c-1.45879,3.23107-4.96873,3.48388-7.55835,2.40385a21.79485,21.79485,0,0,0,1.42793-12.92477,24.31539,24.31539,0,0,0,11.19633-4.96993,18.25,18.25,0,0,1,8.65463,13.83072ZM27.63059,110.69835a25.38564,25.38564,0,0,0,6.41876,14.97146c-3.486,3.31455-7.34,9.401-3.4086,15.2257,3.14927,4.93293,8.50308,3.77274,11.24608,1.28541,1.65364-1.52779-.49885-4.1024-2.21651-2.65145-1.31369,1.14263-4.34412,2.49113-6.2405-.6318-2.954-4.37324,1.08568-8.939,3.10965-10.81451a23.92349,23.92349,0,0,0,16.62338,5.62117C55.62626,144.5492,47.21116,155.3656,36.3824,155.23,14.16615,153.78375,16.03121,125.53036,27.63059,110.69835Z" fill="#2b2a3a"/>
        <path d="M119.847,115.26605a31.87892,31.87892,0,0,0,3.54679-1.12746,1.76275,1.76275,0,0,0,1.073-2.21531,1.68931,1.68931,0,0,0-2.15134-1.10493l-3.00694,1.03639A1.76437,1.76437,0,0,0,119.847,115.26605Z" fill="#2b2a3a"/>
        <path d="M154.43283,41.58317a1.911,1.911,0,0,0,0-3.81828A1.911,1.911,0,0,0,154.43283,41.58317Z" fill="#2b2a3a"/>
      </g>
      <g>
        <path d="M145.919,15.34484c6.84393.6443,10.99914,5.75311,12.46836,11.81628a50.35421,50.35421,0,0,1,21.91862-15.387,16.94348,16.94348,0,0,1-.75813-6.112,4.343,4.343,0,0,1,3.9308-4.08042,20.21854,20.21854,0,0,1,18.047,7.81233,51.79429,51.79429,0,0,1,32.69089,17.15382,8.55432,8.55432,0,0,1,.00311,11.39972A51.74,51.74,0,0,1,201.538,55.08364a20.19655,20.19655,0,0,1-18.04273,7.80252,4.349,4.349,0,0,1-3.933-4.08256,16.93808,16.93808,0,0,1,.75357-6.10792l.00123-.00123a50.44013,50.44013,0,0,1-21.91475-15.38662c-1.45365,6.08444-5.60853,11.21551-12.47417,11.85854a5.34611,5.34611,0,0,1-5.813-5.786c.33242-3.89872,1.63561-8.74612,5.93959-11.12469-4.30528-2.38091-5.6111-7.229-5.94565-11.12793A5.33948,5.33948,0,0,1,145.919,15.34484Z" fill="#b5d5f5"/>
        <g>
          <path d="M144.1617,20.45351a13.99977,13.99977,0,0,1,4.48147,4.65331,4.00954,4.00954,0,0,0,6.20717.83147l.066-.06276a4.00238,4.00238,0,0,0,.396-5.3263,13.08991,13.08991,0,0,0-9.42918-5.24045c-.02525-.00246-.05039-.00454-.07565-.00651A2.78257,2.78257,0,0,0,144.1617,20.45351Z" fill="#cbe3fa"/>
          <path d="M189.72965,12.25658A49.2878,49.2878,0,0,1,205.09,15.14318a1.38939,1.38939,0,0,0,1.635-.55361,32.35469,32.35469,0,0,1,2.76679-3.65566,48.671,48.671,0,0,0-19.91888-1.43816A1.38722,1.38722,0,0,0,189.72965,12.25658Z" fill="#cbe3fa"/>
          <path d="M189.82518,36.637a1.04044,1.04044,0,0,1-.62038,1.32334l-1.819.66672a3.123,3.123,0,0,1-3.88452-1.57529,11.19156,11.19156,0,0,1-.0051-9.70288,3.11744,3.11744,0,0,1,3.88489-1.57686l1.81864.66648a1.04009,1.04009,0,0,1,.6227,1.32184,13.39517,13.39517,0,0,0,.00279,8.87665Z" fill="#cbe3fa"/>
        </g>
        <path d="M184.205,36.11283a.65709.65709,0,0,0-.70373.939,3.12207,3.12207,0,0,0,3.88452,1.57529l1.819-.66672a1.04077,1.04077,0,0,0,.62039-1.32334,13.39256,13.39256,0,0,1-.00267-8.87653,1.04008,1.04008,0,0,0-.62269-1.32184l-1.0865-.39765a.65989.65989,0,0,0-.87906.51776c-.599,3.842.95556,10.26847-3.02926,9.55407Z" fill="#eef7ff"/>
        <path d="M183.44254,1.54567a4.343,4.343,0,0,0-3.93079,4.08041,16.56653,16.56653,0,0,0,.7569,6.10833A47.74218,47.74218,0,0,1,201.48952,9.358,20.21852,20.21852,0,0,0,183.44254,1.54567Z" fill="#9ec7f0"/>
        <path d="M183.44247,3.98524a20.09188,20.09188,0,0,1,11.47936,4.76788,1.243,1.243,0,0,0,.81969.30317,48.16714,48.16714,0,0,1,5.74812.30182,20.21852,20.21852,0,0,0-18.047-7.81232A1.22327,1.22327,0,0,0,183.44247,3.98524Z" fill="#b5d5f5"/>
        <path d="M180.31708,52.69445l-.00123.00123a16.93808,16.93808,0,0,0-.75357,6.10792,4.349,4.349,0,0,0,3.933,4.08256A20.19655,20.19655,0,0,0,201.538,55.08364,47.904,47.904,0,0,1,180.31708,52.69445Z" fill="#9ec7f0"/>
        <path d="M183.47071,60.405a1.22523,1.22523,0,0,0-.01147,2.44508A20.19654,20.19654,0,0,0,201.502,55.04759c-5.10324.57277-5.50186-.0053-6.21721.59748a21.09868,21.09868,0,0,1-11.81405,4.76Z" fill="#b5d5f5"/>
        <path d="M209.4917,10.93379a32.30811,32.30811,0,0,0,.01147,42.54223,52.404,52.404,0,0,0,24.68035-15.56449,8.5543,8.5543,0,0,0-.00311-11.39971A52.46356,52.46356,0,0,0,209.4917,10.93379Z" fill="#cbe3fa"/>
        <path d="M209.4917,10.93379a28.38566,28.38566,0,0,0-2.43136,3.15786,1.38624,1.38624,0,0,0,.6142,2.05562,51.2782,51.2782,0,0,1,12.907,7.81179c9.00692,7.438,6.20251,15.21193,1.51247,20.80336a1.38816,1.38816,0,0,0,1.82393,2.05632,54.193,54.193,0,0,0,10.26528-8.90745,8.553,8.553,0,0,0-.0031-11.39972A52.46313,52.46313,0,0,0,209.4917,10.93379Z" fill="#eef7ff"/>
        <g>
          <path d="M146.012,13.9283c5.9939.56426,10.69043,4.39666,12.93744,10.41418C169.72029,12.62165,183.844,7.125,198.10079,7.70878A18.76348,18.76348,0,0,0,183.5665,2.92793a2.93716,2.93716,0,0,0-2.66918,2.78276,1.38717,1.38717,0,0,1-2.76918-.169A5.69269,5.69269,0,0,1,183.3192.1645a21.72432,21.72432,0,0,1,18.90093,7.884,53.35427,53.35427,0,0,1,32.99248,17.53631,9.90627,9.90627,0,0,1,.00361,13.25422,53.95487,53.95487,0,0,1-25.19188,15.92247,1.38092,1.38092,0,0,1-.3006.08452A49.63631,49.63631,0,0,1,181.24,54.444a15.43238,15.43238,0,0,0-.32828,4.23968,2.94118,2.94118,0,0,0,2.6707,2.78421,19.54443,19.54443,0,0,0,8.72246-1.19008,1.38735,1.38735,0,0,1,.99821,2.58893,22.3352,22.3352,0,0,1-9.96659,1.36433,5.70053,5.70053,0,0,1-5.194-5.38,18.20888,18.20888,0,0,1,.4653-5.32444,52.13994,52.13994,0,0,1-21.3027-15.36121,1.3868,1.3868,0,1,1,2.122-1.786c12.58789,14.95424,30.64978,20.3183,47.6297,16.295a33.7331,33.7331,0,0,1-2.95719-36.37409,1.38743,1.38743,0,0,1,2.44533,1.31155,30.9543,30.9543,0,0,0,3.42729,34.27241,51.24978,51.24978,0,0,0,23.17888-14.89866,7.13628,7.13628,0,0,0-.00273-9.54827c-19.71739-21.967-53.44568-23.54407-73.73546.58009a1.38831,1.38831,0,0,1-2.40993-.5672c-.72258-2.98475-3.266-10.00807-11.24939-10.7596a3.95234,3.95234,0,0,0-4.29819,4.283c.427,4.9722,2.18769,8.3476,5.23314,10.03251a1.388,1.388,0,0,1,.00066,2.42756c-3.04465,1.68338-4.80347,5.05782-5.22767,10.02967a3.95691,3.95691,0,0,0,4.30064,4.2852,11.61052,11.61052,0,0,0,6.96246-3.04788,1.38745,1.38745,0,0,1,1.88277,2.03843,14.32354,14.32354,0,0,1-8.58517,3.77166,6.73282,6.73282,0,0,1-7.32488-7.28466c.41859-4.90515,2.09417-8.66312,4.882-11.007-2.788-2.34532-4.46666-6.10444-4.88791-11.00958a6.72468,6.72468,0,0,1,7.32041-7.28117Z"/>
          <path d="M184.75092,36.44892a1.7272,1.7272,0,0,0,2.15684.875l2.81557-1.03192a1.38738,1.38738,0,0,1,.956,2.60485l-2.81557,1.03193a4.49289,4.49289,0,0,1-5.6111-2.27522,12.6563,12.6563,0,0,1-.00591-10.90832,4.49118,4.49118,0,0,1,5.61182-2.27608l2.81723,1.03382a1.38689,1.38689,0,1,1-.95462,2.60434L186.904,27.07348a1.72777,1.72777,0,0,0-2.15832.87775,9.85907,9.85907,0,0,0,.00525,8.49768Z"/>
          <path d="M214.638,27.80115l1.26569-1.26568-1.2663-1.2663a1.41667,1.41667,0,0,1-.09728-1.92767,1.38177,1.38177,0,0,1,2.01361-.06289l1.30341,1.30341,1.26561-1.2656a1.41648,1.41648,0,0,1,1.92762-.09624,1.38188,1.38188,0,0,1,.064,2.01365l-1.3027,1.3027,1.26629,1.26629a1.41667,1.41667,0,0,1,.09729,1.92768,1.38177,1.38177,0,0,1-2.01361.06289L217.85819,28.49l-1.30271,1.30271a1.38178,1.38178,0,0,1-2.01337-.06367A1.4164,1.4164,0,0,1,214.638,27.80115Z"/>
        </g>
      </g>
    </g>
  </g>
</svg>
